Source - Olympus has Fallen 2013 HP cam (Thumbs Up + Respect)

NOTES - Enjoy, did a fair bit of work to this.  Naffed up the calculation on size so its oversized from the 700mb i wanted but never the less its good to go.

SAMPLE INCLUDED.

General
Complete name                            : Olympus Has Fallen 2013 CAM XviD-SSDD.avi
Format                                   : AVI
Format/Info                              : Audio Video Interleave
File size                                : 867 MiB
Duration                                 : 1h 50mn
Overall bit rate                         : 1 100 Kbps

Video
ID                                       : 0
Format                                   : MPEG-4 Visual
Format profile                           : Advanced Simple@L5
Format settings, BVOP                    : 2
Format settings, QPel                    : No
Format settings, GMC                     : No warppoints
Format settings, Matrix                  : Default (H.263)
Muxing mode                              : Packed bitstream
Codec ID                                 : XVID
Codec ID/Hint                            : XviD
Duration                                 : 1h 50mn
Bit rate                                 : 960 Kbps
Width                                    : 720 pixels
Height                                   : 304 pixels
Display aspect ratio                     : 2.35:1
Frame rate                               : 29.970 fps
Color space                              : YUV
Chroma subsampling                       : 4:2:0
Bit depth                                : 8 bits
Scan type                                : Progressive
Compression mode                         : Lossy
Bits/(Pixel*Frame)                       : 0.146
Stream size                              : 757 MiB (87%)

Audio
ID                                       : 1
Format                                   : MPEG Audio
Format version                           : Version 1
Format profile                           : Layer 3
Mode                                     : Joint stereo
Mode extension                           : MS Stereo
Codec ID                                 : 55
Codec ID/Hint                            : MP3
Duration                                 : 1h 50mn
Bit rate mode                            : Constant
Bit rate                                 : 128 Kbps
Channel(s)                               : 2 channels
Sampling rate                            : 48.0 KHz
Compression mode                         : Lossy
Stream size                              : 101 MiB (12%)

Screens:
 
http://imgbox.com/acgGIxyV 
http://imgbox.com/abwauDP8 
http://imgbox.com/adwZ4Dd2 
http://imgbox.com/adowefR8